<svg xmlns="http://www.w3.org/2000/svg" width="1920" height="1080" viewBox="0 0 1920 1080" fill="none">
  <rect width="1920" height="1080" fill="#F3EBDD"/>
  <path d="M0 868C318 718 572 990 894 839C1216 688 1510 878 1920 698V1080H0V868Z" fill="#E7DCC8"/>
  <circle cx="1660" cy="168" r="224" fill="#E4D8FF"/>
  <circle cx="1780" cy="92" r="84" fill="#FFB08F"/>

  <g transform="translate(112 92)">
    <rect width="76" height="76" rx="18" fill="#F3EBDD" stroke="#171614" stroke-width="4"/>
    <rect x="17" y="17" width="76" height="76" rx="18" fill="#F3EBDD" stroke="#171614" stroke-width="4"/>
    <rect x="34" y="34" width="59" height="59" rx="14" fill="#7557E8"/>
    <circle cx="76" cy="17" r="11" fill="#FF7A45" stroke="#171614" stroke-width="4"/>
  </g>

  <text x="112" y="324" fill="#171614" font-family="Inter, SF Pro Display, Arial, sans-serif" font-size="104" font-weight="650" letter-spacing="-4">Perfect Libraries</text>
  <text x="118" y="407" fill="#554F47" font-family="Inter, SF Pro Text, Arial, sans-serif" font-size="36" font-weight="450">
    Turn imported UI frames into maintainable Figma libraries.
  </text>

  <g transform="translate(112 488)">
    <rect width="528" height="316" rx="30" fill="#FFFDF8" stroke="#171614" stroke-width="3"/>
    <text x="38" y="58" fill="#776F65" font-family="Inter, Arial, sans-serif" font-size="19" font-weight="600" letter-spacing="2">SOURCE FRAMES</text>
    <rect x="38" y="88" width="190" height="88" rx="18" fill="#F3EBDD" stroke="#171614" stroke-width="3"/>
    <rect x="264" y="88" width="226" height="88" rx="18" fill="#7557E8"/>
    <text x="86" y="143" fill="#171614" font-family="Inter, Arial, sans-serif" font-size="23" font-weight="600">Default</text>
    <text x="321" y="143" fill="#FFFDF8" font-family="Inter, Arial, sans-serif" font-size="23" font-weight="600">Primary</text>
    <rect x="38" y="210" width="452" height="68" rx="16" fill="#EBE2D3"/>
    <circle cx="75" cy="244" r="13" fill="#FF7A45"/>
    <rect x="102" y="233" width="162" height="22" rx="11" fill="#A99E8C"/>
    <rect x="340" y="225" width="118" height="38" rx="19" fill="#171614"/>
  </g>

  <path d="M692 646H810" stroke="#171614" stroke-width="4" stroke-linecap="round"/>
  <path d="M786 626L810 646L786 666" stroke="#171614" stroke-width="4" stroke-linecap="round" stroke-linejoin="round"/>

  <g transform="translate(860 442)">
    <rect width="842" height="474" rx="38" fill="#171614"/>
    <text x="48" y="68" fill="#AFA69A" font-family="Inter, Arial, sans-serif" font-size="19" font-weight="600" letter-spacing="2">TOKEN-BOUND COMPONENT SET</text>

    <g transform="translate(48 104)">
      <rect width="476" height="310" rx="28" fill="#FFFDF8"/>
      <text x="30" y="50" fill="#776F65" font-family="Inter, Arial, sans-serif" font-size="17" font-weight="600">BUTTON · 4 VARIANTS</text>
      <rect x="30" y="78" width="194" height="72" rx="18" fill="#7557E8"/>
      <rect x="252" y="78" width="194" height="72" rx="18" fill="#F3EBDD" stroke="#171614" stroke-width="2"/>
      <rect x="30" y="178" width="194" height="94" rx="20" fill="#7557E8"/>
      <rect x="252" y="178" width="194" height="94" rx="20" fill="#F3EBDD" stroke="#171614" stroke-width="2"/>
      <text x="83" y="123" fill="#FFFDF8" font-family="Inter, Arial, sans-serif" font-size="22" font-weight="650">Continue</text>
      <text x="305" y="123" fill="#171614" font-family="Inter, Arial, sans-serif" font-size="22" font-weight="650">Continue</text>
      <text x="82" y="235" fill="#FFFDF8" font-family="Inter, Arial, sans-serif" font-size="23" font-weight="650">Continue</text>
      <text x="304" y="235" fill="#171614" font-family="Inter, Arial, sans-serif" font-size="23" font-weight="650">Continue</text>
    </g>

    <g transform="translate(558 104)">
      <text x="0" y="26" fill="#AFA69A" font-family="Inter, Arial, sans-serif" font-size="17" font-weight="600">VARIABLES</text>
      <rect y="52" width="224" height="64" rx="16" fill="#2D2A27"/>
      <circle cx="32" cy="84" r="13" fill="#7557E8"/>
      <text x="57" y="91" fill="#FFFDF8" font-family="Inter, Arial, sans-serif" font-size="18">color/action</text>
      <rect y="132" width="224" height="64" rx="16" fill="#2D2A27"/>
      <circle cx="32" cy="164" r="13" fill="#F3EBDD"/>
      <text x="57" y="171" fill="#FFFDF8" font-family="Inter, Arial, sans-serif" font-size="18">color/surface</text>
      <rect y="212" width="224" height="64" rx="16" fill="#2D2A27"/>
      <rect x="20" y="236" width="24" height="8" rx="4" fill="#FF7A45"/>
      <text x="57" y="251" fill="#FFFDF8" font-family="Inter, Arial, sans-serif" font-size="18">spacing/3</text>
    </g>
  </g>

  <g transform="translate(112 904)">
    <rect width="250" height="52" rx="26" fill="#171614"/>
    <text x="24" y="34" fill="#FFFDF8" font-family="Inter, Arial, sans-serif" font-size="18" font-weight="600">GET-only release feeds</text>
    <rect x="270" width="176" height="52" rx="26" fill="#FFFDF8" stroke="#171614" stroke-width="2"/>
    <text x="305" y="34" fill="#171614" font-family="Inter, Arial, sans-serif" font-size="18" font-weight="600">Open source</text>
    <rect x="466" width="190" height="52" rx="26" fill="#FFFDF8" stroke="#171614" stroke-width="2"/>
    <text x="498" y="34" fill="#171614" font-family="Inter, Arial, sans-serif" font-size="18" font-weight="600">Safe updates</text>
  </g>
</svg>
